<svg xmlns="http://www.w3.org/2000/svg" width="720" height="220" viewBox="0 0 720 220" role="img" aria-label="Chevron process 050 6 segments gap">
  <title>Chevron process 050 6 segments gap</title>
  <defs>
    <linearGradient id="g_soft_blue" x1="0" y1="0" x2="0" y2="1">
      <stop offset="0" stop-color="#BFD0EE"/>
      <stop offset="0.46" stop-color="#E6EEF9"/>
      <stop offset="1" stop-color="#FFFFFF"/>
    </linearGradient>
    <linearGradient id="g_edge_blue" x1="0" y1="0" x2="1" y2="0">
      <stop offset="0" stop-color="#DCE7F7"/>
      <stop offset="0.55" stop-color="#AFC5E9"/>
      <stop offset="1" stop-color="#E9F1FB"/>
    </linearGradient>
    <linearGradient id="g_flat_blue" x1="0" y1="0" x2="0" y2="1">
      <stop offset="0" stop-color="#8FAFDD"/>
      <stop offset="1" stop-color="#C7D7F0"/>
    </linearGradient>
    <marker id="arrow_head" markerWidth="11" markerHeight="11" refX="9" refY="5.5" orient="auto" markerUnits="strokeWidth">
      <path d="M0,0 L10,5.5 L0,11 Z" fill="#7E9FD1"/>
    </marker>
    <marker id="arrow_head_light" markerWidth="11" markerHeight="11" refX="9" refY="5.5" orient="auto" markerUnits="strokeWidth">
      <path d="M0,0 L10,5.5 L0,11 Z" fill="#A3BADF"/>
    </marker>
    
  </defs>
  
  <rect x="44" y="163.0" width="632" height="12" rx="6" fill="#5A6F8F" opacity="0.07"/>
  <path d="M 36.0 69.0 L 81.3 69.0 L 137.3 110.0 L 81.3 151.0 L 36.0 151.0 L 76.3 110.0 Z" fill="url(#g_soft_blue)" fill-opacity="1" stroke="#8CAADA" stroke-width="1.1" vector-effect="non-scaling-stroke" />
  <path d="M 44.0 74.0 L 73.3 74.0 L 113.3 110.0 L 57.3 94.0 L 72.4 94.0 Z" fill="#FFFFFF" opacity="0.25"/>
  <path d="M 145.3 69.0 L 190.7 69.0 L 246.7 110.0 L 190.7 151.0 L 145.3 151.0 L 185.7 110.0 Z" fill="url(#g_soft_blue)" fill-opacity="1" stroke="#8CAADA" stroke-width="1.1" vector-effect="non-scaling-stroke" />
  <path d="M 153.3 74.0 L 182.7 74.0 L 222.7 110.0 L 166.7 94.0 L 181.7 94.0 Z" fill="#FFFFFF" opacity="0.25"/>
  <path d="M 254.7 69.0 L 300.0 69.0 L 356.0 110.0 L 300.0 151.0 L 254.7 151.0 L 295.0 110.0 Z" fill="url(#g_soft_blue)" fill-opacity="1" stroke="#8CAADA" stroke-width="1.1" vector-effect="non-scaling-stroke" />
  <path d="M 262.7 74.0 L 292.0 74.0 L 332.0 110.0 L 276.0 94.0 L 291.1 94.0 Z" fill="#FFFFFF" opacity="0.25"/>
  <path d="M 364.0 69.0 L 409.3 69.0 L 465.3 110.0 L 409.3 151.0 L 364.0 151.0 L 404.3 110.0 Z" fill="url(#g_soft_blue)" fill-opacity="1" stroke="#8CAADA" stroke-width="1.1" vector-effect="non-scaling-stroke" />
  <path d="M 372.0 74.0 L 401.3 74.0 L 441.3 110.0 L 385.3 94.0 L 400.4 94.0 Z" fill="#FFFFFF" opacity="0.25"/>
  <path d="M 473.3 69.0 L 518.7 69.0 L 574.7 110.0 L 518.7 151.0 L 473.3 151.0 L 513.7 110.0 Z" fill="url(#g_soft_blue)" fill-opacity="1" stroke="#8CAADA" stroke-width="1.1" vector-effect="non-scaling-stroke" />
  <path d="M 481.3 74.0 L 510.7 74.0 L 550.7 110.0 L 494.7 94.0 L 509.7 94.0 Z" fill="#FFFFFF" opacity="0.25"/>
  <path d="M 582.7 69.0 L 628.0 69.0 L 684.0 110.0 L 628.0 151.0 L 582.7 151.0 L 623.0 110.0 Z" fill="url(#g_soft_blue)" fill-opacity="1" stroke="#8CAADA" stroke-width="1.1" vector-effect="non-scaling-stroke" />
  <path d="M 590.7 74.0 L 620.0 74.0 L 660.0 110.0 L 604.0 94.0 L 619.1 94.0 Z" fill="#FFFFFF" opacity="0.25"/>
</svg>