<svg xmlns="http://www.w3.org/2000/svg" width="720" height="220" viewBox="0 0 720 220" role="img" aria-label="Chevron process 064 7 segments connected">
  <title>Chevron process 064 7 segments connected</title>
  <defs>
    <linearGradient id="g_soft_blue" x1="0" y1="0" x2="0" y2="1">
      <stop offset="0" stop-color="#BFD0EE"/>
      <stop offset="0.46" stop-color="#E6EEF9"/>
      <stop offset="1" stop-color="#FFFFFF"/>
    </linearGradient>
    <linearGradient id="g_edge_blue" x1="0" y1="0" x2="1" y2="0">
      <stop offset="0" stop-color="#DCE7F7"/>
      <stop offset="0.55" stop-color="#AFC5E9"/>
      <stop offset="1" stop-color="#E9F1FB"/>
    </linearGradient>
    <linearGradient id="g_flat_blue" x1="0" y1="0" x2="0" y2="1">
      <stop offset="0" stop-color="#8FAFDD"/>
      <stop offset="1" stop-color="#C7D7F0"/>
    </linearGradient>
    <marker id="arrow_head" markerWidth="11" markerHeight="11" refX="9" refY="5.5" orient="auto" markerUnits="strokeWidth">
      <path d="M0,0 L10,5.5 L0,11 Z" fill="#7E9FD1"/>
    </marker>
    <marker id="arrow_head_light" markerWidth="11" markerHeight="11" refX="9" refY="5.5" orient="auto" markerUnits="strokeWidth">
      <path d="M0,0 L10,5.5 L0,11 Z" fill="#A3BADF"/>
    </marker>
    
  </defs>
  
  <rect x="44" y="163.0" width="632" height="12" rx="6" fill="#5A6F8F" opacity="0.07"/>
  <path d="M 36.0 69.0 L 74.3 69.0 L 130.3 110.0 L 74.3 151.0 L 36.0 151.0 L 76.3 110.0 Z" fill="url(#g_soft_blue)" fill-opacity="1" stroke="#8CAADA" stroke-width="1.1" vector-effect="non-scaling-stroke" />
  <path d="M 44.0 74.0 L 66.3 74.0 L 106.3 110.0 L 50.3 94.0 L 72.4 94.0 Z" fill="#FFFFFF" opacity="0.25"/>
  <path d="M 128.3 69.0 L 166.6 69.0 L 222.6 110.0 L 166.6 151.0 L 128.3 151.0 L 168.6 110.0 Z" fill="url(#g_soft_blue)" fill-opacity="1" stroke="#8CAADA" stroke-width="1.1" vector-effect="non-scaling-stroke" />
  <path d="M 136.3 74.0 L 158.6 74.0 L 198.6 110.0 L 142.6 94.0 L 164.7 94.0 Z" fill="#FFFFFF" opacity="0.25"/>
  <path d="M 220.6 69.0 L 258.9 69.0 L 314.9 110.0 L 258.9 151.0 L 220.6 151.0 L 260.9 110.0 Z" fill="url(#g_soft_blue)" fill-opacity="1" stroke="#8CAADA" stroke-width="1.1" vector-effect="non-scaling-stroke" />
  <path d="M 228.6 74.0 L 250.9 74.0 L 290.9 110.0 L 234.9 94.0 L 257.0 94.0 Z" fill="#FFFFFF" opacity="0.25"/>
  <path d="M 312.9 69.0 L 351.1 69.0 L 407.1 110.0 L 351.1 151.0 L 312.9 151.0 L 353.2 110.0 Z" fill="url(#g_soft_blue)" fill-opacity="1" stroke="#8CAADA" stroke-width="1.1" vector-effect="non-scaling-stroke" />
  <path d="M 320.9 74.0 L 343.1 74.0 L 383.1 110.0 L 327.1 94.0 L 349.3 94.0 Z" fill="#FFFFFF" opacity="0.25"/>
  <path d="M 405.1 69.0 L 443.4 69.0 L 499.4 110.0 L 443.4 151.0 L 405.1 151.0 L 445.5 110.0 Z" fill="url(#g_soft_blue)" fill-opacity="1" stroke="#8CAADA" stroke-width="1.1" vector-effect="non-scaling-stroke" />
  <path d="M 413.1 74.0 L 435.4 74.0 L 475.4 110.0 L 419.4 94.0 L 441.5 94.0 Z" fill="#FFFFFF" opacity="0.25"/>
  <path d="M 497.4 69.0 L 535.7 69.0 L 591.7 110.0 L 535.7 151.0 L 497.4 151.0 L 537.7 110.0 Z" fill="url(#g_soft_blue)" fill-opacity="1" stroke="#8CAADA" stroke-width="1.1" vector-effect="non-scaling-stroke" />
  <path d="M 505.4 74.0 L 527.7 74.0 L 567.7 110.0 L 511.7 94.0 L 533.8 94.0 Z" fill="#FFFFFF" opacity="0.25"/>
  <path d="M 589.7 69.0 L 628.0 69.0 L 684.0 110.0 L 628.0 151.0 L 589.7 151.0 L 630.0 110.0 Z" fill="url(#g_soft_blue)" fill-opacity="1" stroke="#8CAADA" stroke-width="1.1" vector-effect="non-scaling-stroke" />
  <path d="M 597.7 74.0 L 620.0 74.0 L 660.0 110.0 L 604.0 94.0 L 626.1 94.0 Z" fill="#FFFFFF" opacity="0.25"/>
</svg>