<svg xmlns="http://www.w3.org/2000/svg" width="800" height="220" viewBox="0 0 800 220" role="img">
  <title>gradient_mainchain_31</title>
  <rect width="100%" height="100%" fill="none"/>
  <defs>
    <linearGradient id="g" x1="0" y1="0" x2="0" y2="1">
      <stop offset="0%" stop-color="#C9D9F4"/>
      <stop offset="58%" stop-color="#EEF5FF"/>
      <stop offset="100%" stop-color="#FFFFFF"/>
    </linearGradient>
    <linearGradient id="gSide" x1="0" y1="0" x2="1" y2="0">
      <stop offset="0%" stop-color="#E8F1FF"/>
      <stop offset="100%" stop-color="#B8CCE9"/>
    </linearGradient>
  </defs>
  <polygon points="53.0,95.0 373.0,95.0 373.0,143.0 53.0,143.0" fill="#496A9E" opacity="0.1"/>
  <polygon points="363.0,98.0 579.0,52.0 579.0,68.0 639.0,73.0 579.0,78.0 579.0,94.0 363.0,140.0" fill="#496A9E" opacity="0.1"/>
  <polygon points="363.0,98.0 579.0,144.0 579.0,128.0 639.0,165.0 579.0,202.0 579.0,186.0 363.0,140.0" fill="#496A9E" opacity="0.1"/>
  <polygon points="50.0,88.0 370.0,88.0 370.0,136.0 50.0,136.0" fill="url(#g)" opacity="1" stroke="#9BB4D9" stroke-width="2" stroke-linejoin="round"/>
  <polygon points="360.0,91.0 576.0,45.0 576.0,61.0 636.0,66.0 576.0,71.0 576.0,87.0 360.0,133.0" fill="url(#g)" opacity="1" stroke="#9BB4D9" stroke-width="2" stroke-linejoin="round"/>
  <polygon points="360.0,91.0 576.0,137.0 576.0,121.0 636.0,158.0 576.0,195.0 576.0,179.0 360.0,133.0" fill="url(#g)" opacity="1" stroke="#9BB4D9" stroke-width="2" stroke-linejoin="round"/>
</svg>