<?xml version="1.0" encoding="UTF-8"?>
<svg xmlns="http://www.w3.org/2000/svg" width="720" height="720" viewBox="0 0 720 720" fill="none">
<title>cycle feedback arrows</title>
<desc>Self-made PPT-friendly SVG arrow asset. Basic paths only; no third-party artwork.</desc>

<defs>
  <linearGradient id="gMain" x1="0" y1="0" x2="0" y2="1">
    <stop offset="0" stop-color="#B9D0EE"/>
    <stop offset="0.52" stop-color="#EAF2FB"/>
    <stop offset="1" stop-color="#FFFFFF"/>
  </linearGradient>
  <linearGradient id="gTop" x1="0" y1="0" x2="0" y2="1">
    <stop offset="0" stop-color="#DCE8F8" stop-opacity="0.95"/>
    <stop offset="1" stop-color="#FFFFFF" stop-opacity="0.12"/>
  </linearGradient>
  <linearGradient id="gSide" x1="0" y1="0" x2="0" y2="1">
    <stop offset="0" stop-color="#9FBFE6" stop-opacity="0.50"/>
    <stop offset="1" stop-color="#5F86B7" stop-opacity="0.15"/>
  </linearGradient>
  <marker id="arrowHead" markerWidth="16" markerHeight="12" refX="15" refY="6" orient="auto" markerUnits="strokeWidth">
    <path d="M 0 0 L 16 6 L 0 12 z" fill="#8FB0DB"/>
  </marker>
</defs>

<path d="M 150.0 360.0 A 210.0 210.0 0 0 1 570.0 360.0" fill="none" stroke="#DDEAF8" stroke-width="32" stroke-linecap="round" opacity="0.7"/>
<path d="M 150.0 360.0 A 210.0 210.0 0 0 1 570.0 360.0" fill="none" stroke="#9BB8DD" stroke-width="24" stroke-linecap="round" opacity="0.86"/>
<path d="M 570.0 400.0 A 210.0 210.0 0 0 1 150.0 400.0" fill="none" stroke="#DDEAF8" stroke-width="32" stroke-linecap="round" opacity="0.7"/>
<path d="M 570.0 400.0 A 210.0 210.0 0 0 1 150.0 400.0" fill="none" stroke="#9BB8DD" stroke-width="24" stroke-linecap="round" opacity="0.86"/>
<path d="M 570.0 360.0 L 506.8 368.7 L 518.3 322.6 Z" fill="#9BB8DD" opacity="0.88"/>
<path d="M 150.0 400.0 L 213.2 391.3 L 201.7 437.4 Z" fill="#9BB8DD" opacity="0.88"/>

</svg>
