<svg xmlns="http://www.w3.org/2000/svg" width="640" height="220" viewBox="0 0 640 220" role="img" aria-label="Perspective channel arrow 028 left notch">
  <title>Perspective channel arrow 028 left notch</title>
  <defs>
    <linearGradient id="g_soft_blue" x1="0" y1="0" x2="0" y2="1">
      <stop offset="0" stop-color="#BFD0EE"/>
      <stop offset="0.46" stop-color="#E6EEF9"/>
      <stop offset="1" stop-color="#FFFFFF"/>
    </linearGradient>
    <linearGradient id="g_edge_blue" x1="0" y1="0" x2="1" y2="0">
      <stop offset="0" stop-color="#DCE7F7"/>
      <stop offset="0.55" stop-color="#AFC5E9"/>
      <stop offset="1" stop-color="#E9F1FB"/>
    </linearGradient>
    <linearGradient id="g_flat_blue" x1="0" y1="0" x2="0" y2="1">
      <stop offset="0" stop-color="#8FAFDD"/>
      <stop offset="1" stop-color="#C7D7F0"/>
    </linearGradient>
    <marker id="arrow_head" markerWidth="11" markerHeight="11" refX="9" refY="5.5" orient="auto" markerUnits="strokeWidth">
      <path d="M0,0 L10,5.5 L0,11 Z" fill="#7E9FD1"/>
    </marker>
    <marker id="arrow_head_light" markerWidth="11" markerHeight="11" refX="9" refY="5.5" orient="auto" markerUnits="strokeWidth">
      <path d="M0,0 L10,5.5 L0,11 Z" fill="#A3BADF"/>
    </marker>
    
  </defs>
  
  <g transform="translate(640 0) scale(-1 1)">
  <path d="M 38.0 175.0 L 438.0 175.0 L 596.0 126.0 L 438.0 185.0 L 38.0 185.0 Z" fill="#5A6F8F" opacity="0.10"/>
  <path d="M 99.0 57.0 L 438.0 57.0 L 438.0 27.0 L 606.0 110.0 L 438.0 193.0 L 438.0 163.0 L 99.0 163.0 L 34.0 110.0 Z" fill="url(#g_soft_blue)" fill-opacity="0.98" stroke="#8AAADC" stroke-width="1.3" vector-effect="non-scaling-stroke" />
  <path d="M 39.0 61.0 L 434.0 61.0 L 434.0 37.0 L 598.0 110.0 L 430.0 99.4 L 39.0 97.3 Z" fill="#FFFFFF" opacity="0.34" stroke="none"/>
  <path d="M 40.0 141.8 L 434.0 141.8 L 582.0 120.0 L 434.0 181.0 L 434.0 160.0 L 40.0 160.0 Z" fill="#8FAFDD" opacity="0.16" stroke="none"/>
  </g>
</svg>