<svg xmlns="http://www.w3.org/2000/svg" width="300" height="540" viewBox="0 0 300 540" role="img" aria-label="vertical chevron stack up">
<title>vertical chevron stack up</title>
<defs>
  <linearGradient id="g" x1="0" y1="0" x2="0" y2="1">
    <stop offset="0%" stop-color="#AFC5E8"/>
    <stop offset="38%" stop-color="#DCE7F7"/>
    <stop offset="100%" stop-color="#FFFFFF"/>
  </linearGradient>
  <linearGradient id="gSide" x1="0" y1="0" x2="1" y2="0">
    <stop offset="0%" stop-color="#EAF1FB" stop-opacity="0.85"/>
    <stop offset="100%" stop-color="#9FB9DF" stop-opacity="0.9"/>
  </linearGradient>
</defs>
<polygon points="55,498 245,498 245,448 270,448 150,393 30,448 55,448" fill="#506B8B" opacity="0.1"/>
<polygon points="55,343 245,343 245,293 270,293 150,238 30,293 55,293" fill="#506B8B" opacity="0.1"/>
<polygon points="55,188 245,188 245,138 270,138 150,83 30,138 55,138" fill="#506B8B" opacity="0.1"/>
<polygon points="55,490 245,490 245,440 270,440 150,385 30,440 55,440" fill="url(#g)" stroke="#8FAAD2" stroke-width="2.5" stroke-linejoin="round" opacity="1"/>
<polygon points="55,335 245,335 245,285 270,285 150,230 30,285 55,285" fill="url(#g)" stroke="#8FAAD2" stroke-width="2.5" stroke-linejoin="round" opacity="1"/>
<polygon points="55,180 245,180 245,130 270,130 150,75 30,130 55,130" fill="url(#g)" stroke="#8FAAD2" stroke-width="2.5" stroke-linejoin="round" opacity="1"/>
<path d="M 58 488 L 242 488" fill="none" stroke="#FFFFFF" stroke-width="3" stroke-linecap="round" opacity="0.55"/>
<path d="M 58 333 L 242 333" fill="none" stroke="#FFFFFF" stroke-width="3" stroke-linecap="round" opacity="0.55"/>
<path d="M 58 178 L 242 178" fill="none" stroke="#FFFFFF" stroke-width="3" stroke-linecap="round" opacity="0.55"/>
</svg>
