<svg xmlns="http://www.w3.org/2000/svg" viewBox="0 0 1280 720" width="1280" height="720">
  <!--
  PPT Arrow Pack Template
  Source: assets/ppt_arrow_pack4_sources/03_Process_Chevron_Systems/process_chevron_21.svg
  License: custom pack permission; see assets/ppt_arrow_pack4_sources/README.md
  Regenerate with: python3 skills/ppt-master/scripts/import_ppt_arrow_pack_assets.py
  -->
  <defs xmlns="http://www.w3.org/2000/svg">
    <linearGradient id="g" x1="0" y1="0" x2="0" y2="1">
      <stop offset="0%" stop-color="#C9D9F4" />
      <stop offset="58%" stop-color="#EEF5FF" />
      <stop offset="100%" stop-color="#FFFFFF" />
    </linearGradient>
    <linearGradient id="gSide" x1="0" y1="0" x2="1" y2="0">
      <stop offset="0%" stop-color="#E8F1FF" />
      <stop offset="100%" stop-color="#B8CCE9" />
    </linearGradient>
  </defs>
  
  <rect width="1280" height="720" fill="#FFFFFF"/>
  <rect x="96" y="106" width="1088" height="488" rx="28" fill="#F8FAFC" stroke="#D9E5F5" stroke-width="2"/>
  <g id="pptpack4_process_chevron_21" transform="translate(150.000 215.250) scale(1.225000)">
    <rect xmlns="http://www.w3.org/2000/svg" width="100%" height="100%" fill="none" />
  
    <polygon xmlns="http://www.w3.org/2000/svg" points="73.0,66.0 145.0,66.0 183.0,87.0 145.0,108.0 73.0,108.0" fill="#496A9E" opacity="0.08" />
  
    <polygon xmlns="http://www.w3.org/2000/svg" points="70.0,60.0 142.0,60.0 180.0,81.0 142.0,102.0 70.0,102.0" fill="url(#g)" opacity="1" stroke="#9BB4D9" stroke-width="1.7" stroke-linejoin="round" />
  
    <polygon xmlns="http://www.w3.org/2000/svg" points="206.1,66.0 261.0,66.0 299.0,87.0 261.0,108.0 206.1,108.0 227.0,87.0" fill="#496A9E" opacity="0.08" />
  
    <polygon xmlns="http://www.w3.org/2000/svg" points="203.1,60.0 258.0,60.0 296.0,81.0 258.0,102.0 203.1,102.0 224.0,81.0" fill="url(#g)" opacity="1" stroke="#9BB4D9" stroke-width="1.7" stroke-linejoin="round" />
  
    <polygon xmlns="http://www.w3.org/2000/svg" points="322.1,66.0 377.0,66.0 415.0,87.0 377.0,108.0 322.1,108.0 343.0,87.0" fill="#496A9E" opacity="0.08" />
  
    <polygon xmlns="http://www.w3.org/2000/svg" points="319.1,60.0 374.0,60.0 412.0,81.0 374.0,102.0 319.1,102.0 340.0,81.0" fill="url(#g)" opacity="1" stroke="#9BB4D9" stroke-width="1.7" stroke-linejoin="round" />
  
    <polygon xmlns="http://www.w3.org/2000/svg" points="438.1,66.0 493.0,66.0 531.0,87.0 493.0,108.0 438.1,108.0 459.0,87.0" fill="#496A9E" opacity="0.08" />
  
    <polygon xmlns="http://www.w3.org/2000/svg" points="435.1,60.0 490.0,60.0 528.0,81.0 490.0,102.0 435.1,102.0 456.0,81.0" fill="url(#g)" opacity="1" stroke="#9BB4D9" stroke-width="1.7" stroke-linejoin="round" />
  
    <polygon xmlns="http://www.w3.org/2000/svg" points="109.0,131.0 181.0,131.0 219.0,152.0 181.0,173.0 109.0,173.0" fill="#496A9E" opacity="0.08" />
  
    <polygon xmlns="http://www.w3.org/2000/svg" points="106.0,125.0 178.0,125.0 216.0,146.0 178.0,167.0 106.0,167.0" fill="url(#g)" opacity="1" stroke="#9BB4D9" stroke-width="1.7" stroke-linejoin="round" />
  
    <polygon xmlns="http://www.w3.org/2000/svg" points="242.1,131.0 297.0,131.0 335.0,152.0 297.0,173.0 242.1,173.0 263.0,152.0" fill="#496A9E" opacity="0.08" />
  
    <polygon xmlns="http://www.w3.org/2000/svg" points="239.1,125.0 294.0,125.0 332.0,146.0 294.0,167.0 239.1,167.0 260.0,146.0" fill="url(#g)" opacity="1" stroke="#9BB4D9" stroke-width="1.7" stroke-linejoin="round" />
  
    <polygon xmlns="http://www.w3.org/2000/svg" points="358.1,131.0 413.0,131.0 451.0,152.0 413.0,173.0 358.1,173.0 379.0,152.0" fill="#496A9E" opacity="0.08" />
  
    <polygon xmlns="http://www.w3.org/2000/svg" points="355.1,125.0 410.0,125.0 448.0,146.0 410.0,167.0 355.1,167.0 376.0,146.0" fill="url(#g)" opacity="1" stroke="#9BB4D9" stroke-width="1.7" stroke-linejoin="round" />

  </g>
  <text x="640" y="650" text-anchor="middle" font-family="Microsoft YaHei, Arial, sans-serif" font-size="17" font-weight="700" fill="#123A73">pptpack4_process_chevron_21</text>
</svg>
