<svg xmlns="http://www.w3.org/2000/svg" viewBox="0 0 1280 720" width="1280" height="720">
  <!--
  PPT Arrow Pack Template
  Source: assets/ppt_arrow_pack4_sources/01_Perspective_MainChain_Gradient/gradient_mainchain_03.svg
  License: custom pack permission; see assets/ppt_arrow_pack4_sources/README.md
  Regenerate with: python3 skills/ppt-master/scripts/import_ppt_arrow_pack_assets.py
  -->
  <defs xmlns="http://www.w3.org/2000/svg">
    <linearGradient id="g" x1="0" y1="0" x2="0" y2="1">
      <stop offset="0%" stop-color="#C9D9F4" />
      <stop offset="58%" stop-color="#EEF5FF" />
      <stop offset="100%" stop-color="#FFFFFF" />
    </linearGradient>
    <linearGradient id="gSide" x1="0" y1="0" x2="1" y2="0">
      <stop offset="0%" stop-color="#E8F1FF" />
      <stop offset="100%" stop-color="#B8CCE9" />
    </linearGradient>
  </defs>
  
  <rect width="1280" height="720" fill="#FFFFFF"/>
  <rect x="96" y="106" width="1088" height="488" rx="28" fill="#F8FAFC" stroke="#D9E5F5" stroke-width="2"/>
  <g id="pptpack4_gradient_mainchain_03" transform="translate(150.000 215.250) scale(1.225000)">
    <rect xmlns="http://www.w3.org/2000/svg" width="100%" height="100%" fill="none" />
  
    <polygon xmlns="http://www.w3.org/2000/svg" points="44.0,90.0 405.2,34.0 648.0,90.0 648.0,70.0 754.0,120.0 648.0,170.0 648.0,150.0 405.2,132.0 44.0,150.0" fill="#496A9E" opacity="0.12" />
  
    <polygon xmlns="http://www.w3.org/2000/svg" points="40.0,82.0 401.2,26.0 644.0,82.0 644.0,62.0 750.0,112.0 644.0,162.0 644.0,142.0 401.2,124.0 40.0,142.0" fill="url(#g)" opacity="1" stroke="#9BB4D9" stroke-width="2" stroke-linejoin="round" />
  
    <polygon xmlns="http://www.w3.org/2000/svg" points="48.0,88.0 401.2,34.0 636.0,88.0 636.0,100.0 401.2,46.0 48.0,100.0" fill="#FFFFFF" opacity="0.36" />

  </g>
  <text x="640" y="650" text-anchor="middle" font-family="Microsoft YaHei, Arial, sans-serif" font-size="17" font-weight="700" fill="#123A73">pptpack4_gradient_mainchain_03</text>
</svg>
