<svg xmlns="http://www.w3.org/2000/svg" viewBox="0 0 1280 720" width="1280" height="720">
  <!--
  PPT Arrow Pack Template
  Source: assets/ppt_arrow_pack6_sources/02_Multi_Lane_Data_Flow_Gradient/multi_lane_data_flow_40.svg
  License: custom pack permission; see assets/ppt_arrow_pack6_sources/README.md
  Regenerate with: python3 skills/ppt-master/scripts/import_ppt_arrow_pack_assets.py
  -->
  <defs xmlns="http://www.w3.org/2000/svg">
<linearGradient id="flow39" x1="0" y1="0" x2="0" y2="1">
  <stop offset="0%" stop-color="#F7FBFF" />
  <stop offset="42%" stop-color="#D9E8F5" />
  <stop offset="100%" stop-color="#C6D8EC" />
</linearGradient>
<linearGradient id="flow39_hl" x1="0" y1="0" x2="0" y2="1">
  <stop offset="0%" stop-color="#FFFFFF" stop-opacity="0.70" />
  <stop offset="100%" stop-color="#FFFFFF" stop-opacity="0.00" />
</linearGradient>
</defs>

  <rect width="1280" height="720" fill="#FFFFFF"/>
  <rect x="96" y="106" width="1088" height="488" rx="28" fill="#F8FAFC" stroke="#D9E5F5" stroke-width="2"/>
  <g id="pptpack6_multi_lane_data_flow_40" transform="translate(150.000 212.188) scale(1.531250)">
    <desc xmlns="http://www.w3.org/2000/svg">multi-lane convergence arrow</desc>

    <path xmlns="http://www.w3.org/2000/svg" d="M 38.0 54.0 L 350.0 54.0 L 456.0 90.0 L 350.0 76.0 L 38.0 76.0 Z" fill="#60758A" stroke="none" stroke-width="0" opacity="0.06" stroke-linejoin="round" />
    <path xmlns="http://www.w3.org/2000/svg" d="M 38.0 50.0 L 350.0 50.0 L 456.0 86.0 L 350.0 72.0 L 38.0 72.0 Z" fill="url(#flow39)" stroke="#8FAACA" stroke-width="1.7" opacity="1" stroke-linejoin="round" />
    <path xmlns="http://www.w3.org/2000/svg" d="M 38.0 90.0 L 360.0 90.0 L 456.0 90.0 L 360.0 58.0 L 38.0 58.0 Z" fill="#60758A" stroke="none" stroke-width="0" opacity="0.06" stroke-linejoin="round" />
    <path xmlns="http://www.w3.org/2000/svg" d="M 38.0 86.0 L 360.0 86.0 L 456.0 86.0 L 360.0 54.0 L 38.0 54.0 Z" fill="url(#flow39)" stroke="#8FAACA" stroke-width="1.7" opacity="1" stroke-linejoin="round" />
    <path xmlns="http://www.w3.org/2000/svg" d="M 38.0 126.0 L 350.0 126.0 L 456.0 90.0 L 350.0 148.0 L 38.0 148.0 Z" fill="#60758A" stroke="none" stroke-width="0" opacity="0.06" stroke-linejoin="round" />
    <path xmlns="http://www.w3.org/2000/svg" d="M 38.0 122.0 L 350.0 122.0 L 456.0 86.0 L 350.0 144.0 L 38.0 144.0 Z" fill="url(#flow39)" stroke="#8FAACA" stroke-width="1.7" opacity="1" stroke-linejoin="round" />
    <path xmlns="http://www.w3.org/2000/svg" d="M 456.0 58.0 L 602.0 94.0 L 456.0 130.0 Z" fill="#60758A" stroke="none" stroke-width="0" opacity="0.06" stroke-linejoin="round" />
    <path xmlns="http://www.w3.org/2000/svg" d="M 456.0 54.0 L 602.0 90.0 L 456.0 126.0 Z" fill="url(#flow39)" stroke="#8FAACA" stroke-width="1.7" opacity="1" stroke-linejoin="round" />

  </g>
  <text x="640" y="650" text-anchor="middle" font-family="Microsoft YaHei, Arial, sans-serif" font-size="17" font-weight="700" fill="#123A73">pptpack6_multi_lane_data_flow_40</text>
</svg>
