<svg xmlns="http://www.w3.org/2000/svg" viewBox="0 0 1280 720" width="1280" height="720">
  <!--
  PPT Arrow Pack Template
  Source: assets/ppt_arrow_pack4_sources/03_Process_Chevron_Systems/process_chevron_17.svg
  License: custom pack permission; see assets/ppt_arrow_pack4_sources/README.md
  Regenerate with: python3 skills/ppt-master/scripts/import_ppt_arrow_pack_assets.py
  -->
  <defs xmlns="http://www.w3.org/2000/svg">
    <linearGradient id="g" x1="0" y1="0" x2="0" y2="1">
      <stop offset="0%" stop-color="#C9D9F4" />
      <stop offset="58%" stop-color="#EEF5FF" />
      <stop offset="100%" stop-color="#FFFFFF" />
    </linearGradient>
    <linearGradient id="gSide" x1="0" y1="0" x2="1" y2="0">
      <stop offset="0%" stop-color="#E8F1FF" />
      <stop offset="100%" stop-color="#B8CCE9" />
    </linearGradient>
  </defs>
  
  <rect width="1280" height="720" fill="#FFFFFF"/>
  <rect x="96" y="106" width="1088" height="488" rx="28" fill="#F8FAFC" stroke="#D9E5F5" stroke-width="2"/>
  <g id="pptpack4_process_chevron_17" transform="translate(150.000 215.250) scale(1.225000)">
    <rect xmlns="http://www.w3.org/2000/svg" width="100%" height="100%" fill="none" />
  
    <polygon xmlns="http://www.w3.org/2000/svg" points="73.0,66.0 175.0,66.0 213.0,87.0 175.0,108.0 73.0,108.0" fill="#496A9E" opacity="0.08" />
  
    <polygon xmlns="http://www.w3.org/2000/svg" points="70.0,60.0 172.0,60.0 210.0,81.0 172.0,102.0 70.0,102.0" fill="url(#g)" opacity="1" stroke="#9BB4D9" stroke-width="1.7" stroke-linejoin="round" />
  
    <polygon xmlns="http://www.w3.org/2000/svg" points="236.1,66.0 321.0,66.0 359.0,87.0 321.0,108.0 236.1,108.0 257.0,87.0" fill="#496A9E" opacity="0.08" />
  
    <polygon xmlns="http://www.w3.org/2000/svg" points="233.1,60.0 318.0,60.0 356.0,81.0 318.0,102.0 233.1,102.0 254.0,81.0" fill="url(#g)" opacity="1" stroke="#9BB4D9" stroke-width="1.7" stroke-linejoin="round" />
  
    <polygon xmlns="http://www.w3.org/2000/svg" points="382.1,66.0 467.0,66.0 505.0,87.0 467.0,108.0 382.1,108.0 403.0,87.0" fill="#496A9E" opacity="0.08" />
  
    <polygon xmlns="http://www.w3.org/2000/svg" points="379.1,60.0 464.0,60.0 502.0,81.0 464.0,102.0 379.1,102.0 400.0,81.0" fill="url(#g)" opacity="1" stroke="#9BB4D9" stroke-width="1.7" stroke-linejoin="round" />
  
    <polygon xmlns="http://www.w3.org/2000/svg" points="109.0,131.0 211.0,131.0 249.0,152.0 211.0,173.0 109.0,173.0" fill="#496A9E" opacity="0.08" />
  
    <polygon xmlns="http://www.w3.org/2000/svg" points="106.0,125.0 208.0,125.0 246.0,146.0 208.0,167.0 106.0,167.0" fill="url(#g)" opacity="1" stroke="#9BB4D9" stroke-width="1.7" stroke-linejoin="round" />
  
    <polygon xmlns="http://www.w3.org/2000/svg" points="272.1,131.0 357.0,131.0 395.0,152.0 357.0,173.0 272.1,173.0 293.0,152.0" fill="#496A9E" opacity="0.08" />
  
    <polygon xmlns="http://www.w3.org/2000/svg" points="269.1,125.0 354.0,125.0 392.0,146.0 354.0,167.0 269.1,167.0 290.0,146.0" fill="url(#g)" opacity="1" stroke="#9BB4D9" stroke-width="1.7" stroke-linejoin="round" />

  </g>
  <text x="640" y="650" text-anchor="middle" font-family="Microsoft YaHei, Arial, sans-serif" font-size="17" font-weight="700" fill="#123A73">pptpack4_process_chevron_17</text>
</svg>
