<svg xmlns="http://www.w3.org/2000/svg" viewBox="0 0 1280 720" width="1280" height="720">
  <!--
  PPT Arrow Pack Template
  Source: assets/ppt_arrow_pack6_sources/03_Milestone_Chevron_Timelines/milestone_chevron_timeline_45.svg
  License: custom pack permission; see assets/ppt_arrow_pack6_sources/README.md
  Regenerate with: python3 skills/ppt-master/scripts/import_ppt_arrow_pack_assets.py
  -->
  <defs xmlns="http://www.w3.org/2000/svg">
<linearGradient id="chev44" x1="0" y1="0" x2="0" y2="1">
  <stop offset="0%" stop-color="#F7FBFF" />
  <stop offset="42%" stop-color="#D9E8F5" />
  <stop offset="100%" stop-color="#C6D8EC" />
</linearGradient>
<linearGradient id="chev44_hl" x1="0" y1="0" x2="0" y2="1">
  <stop offset="0%" stop-color="#FFFFFF" stop-opacity="0.70" />
  <stop offset="100%" stop-color="#FFFFFF" stop-opacity="0.00" />
</linearGradient>
</defs>

  <rect width="1280" height="720" fill="#FFFFFF"/>
  <rect x="96" y="106" width="1088" height="488" rx="28" fill="#F8FAFC" stroke="#D9E5F5" stroke-width="2"/>
  <g id="pptpack6_milestone_chevron_timeline_45" transform="translate(150.000 212.188) scale(1.531250)">
    <desc xmlns="http://www.w3.org/2000/svg">milestone chevron timeline</desc>

    <path xmlns="http://www.w3.org/2000/svg" d="M 34.0 66.0 L 185.3 66.0 L 219.3 96.0 L 185.3 126.0 L 34.0 126.0 Z" fill="#60758A" stroke="none" stroke-width="0" opacity="0.055" stroke-linejoin="round" />
    <path xmlns="http://www.w3.org/2000/svg" d="M 34.0 62.0 L 185.3 62.0 L 219.3 92.0 L 185.3 122.0 L 34.0 122.0 Z" fill="url(#chev44)" stroke="#8FAACA" stroke-width="1.5" opacity="1" stroke-linejoin="round" />
    <line xmlns="http://www.w3.org/2000/svg" x1="223.3" y1="52" x2="223.3" y2="132" stroke="#8FAACA" stroke-width="1" opacity="0.35" />
    <path xmlns="http://www.w3.org/2000/svg" d="M 227.3 66.0 L 378.7 66.0 L 412.7 96.0 L 378.7 126.0 L 227.3 126.0 L 261.3 96.0 Z" fill="#60758A" stroke="none" stroke-width="0" opacity="0.055" stroke-linejoin="round" />
    <path xmlns="http://www.w3.org/2000/svg" d="M 227.3 62.0 L 378.7 62.0 L 412.7 92.0 L 378.7 122.0 L 227.3 122.0 L 261.3 92.0 Z" fill="url(#chev44)" stroke="#8FAACA" stroke-width="1.5" opacity="1" stroke-linejoin="round" />
    <line xmlns="http://www.w3.org/2000/svg" x1="416.7" y1="52" x2="416.7" y2="132" stroke="#8FAACA" stroke-width="1" opacity="0.35" />
    <path xmlns="http://www.w3.org/2000/svg" d="M 420.7 66.0 L 572.0 66.0 L 606.0 96.0 L 572.0 126.0 L 420.7 126.0 L 454.7 96.0 Z" fill="#60758A" stroke="none" stroke-width="0" opacity="0.055" stroke-linejoin="round" />
    <path xmlns="http://www.w3.org/2000/svg" d="M 420.7 62.0 L 572.0 62.0 L 606.0 92.0 L 572.0 122.0 L 420.7 122.0 L 454.7 92.0 Z" fill="url(#chev44)" stroke="#8FAACA" stroke-width="1.5" opacity="1" stroke-linejoin="round" />

  </g>
  <text x="640" y="650" text-anchor="middle" font-family="Microsoft YaHei, Arial, sans-serif" font-size="17" font-weight="700" fill="#123A73">pptpack6_milestone_chevron_timeline_45</text>
</svg>
