<svg xmlns="http://www.w3.org/2000/svg" viewBox="0 0 1280 720" width="1280" height="720">
  <!--
  PPT Arrow Pack Template
  Source: assets/ppt_arrow_pack2_sources/01_MainChain_Gradient_SVG/33_right_then_down_channel.svg
  License: custom pack permission; see assets/ppt_arrow_pack2_sources/LICENSE_CUSTOM_ASSET_USAGE.txt
  Regenerate with: python3 skills/ppt-master/scripts/import_ppt_arrow_pack_assets.py
  -->
  <defs xmlns="http://www.w3.org/2000/svg">
  <linearGradient id="g" x1="0" y1="0" x2="0" y2="1">
    <stop offset="0%" stop-color="#AFC5E8" />
    <stop offset="38%" stop-color="#DCE7F7" />
    <stop offset="100%" stop-color="#FFFFFF" />
  </linearGradient>
  <linearGradient id="gSide" x1="0" y1="0" x2="1" y2="0">
    <stop offset="0%" stop-color="#EAF1FB" stop-opacity="0.85" />
    <stop offset="100%" stop-color="#9FB9DF" stop-opacity="0.9" />
  </linearGradient>
</defs>

  <rect width="1280" height="720" fill="#FFFFFF"/>
  <rect x="96" y="106" width="1088" height="488" rx="28" fill="#F8FAFC" stroke="#D9E5F5" stroke-width="2"/>
  <g id="pptpack2_gradient_right_then_down_channel" transform="translate(150.000 227.500) scale(0.816667)">
    <polygon xmlns="http://www.w3.org/2000/svg" points="50,48 1150,48 1150,103 730,103 730,183 780,183 600,273 420,183 470,183 470,103 50,103" fill="#506B8B" opacity="0.1" />

    <polygon xmlns="http://www.w3.org/2000/svg" points="50,40 1150,40 1150,95 730,95 730,175 780,175 600,265 420,175 470,175 470,95 50,95" fill="url(#g)" stroke="#8FAAD2" stroke-width="2.5" stroke-linejoin="round" opacity="1" />

    <path xmlns="http://www.w3.org/2000/svg" d="M 65 42 L 1135 42" fill="none" stroke="#FFFFFF" stroke-width="3" stroke-linecap="round" opacity="0.55" />

  </g>
  <text x="640" y="650" text-anchor="middle" font-family="Microsoft YaHei, Arial, sans-serif" font-size="17" font-weight="700" fill="#123A73">pptpack2_gradient_right_then_down_channel</text>
</svg>
