<svg xmlns="http://www.w3.org/2000/svg" viewBox="0 0 1280 720" width="1280" height="720">
  <!--
  PPT Arrow Pack Template
  Source: assets/ppt_arrow_pack6_sources/03_Milestone_Chevron_Timelines/milestone_chevron_timeline_32.svg
  License: custom pack permission; see assets/ppt_arrow_pack6_sources/README.md
  Regenerate with: python3 skills/ppt-master/scripts/import_ppt_arrow_pack_assets.py
  -->
  <defs xmlns="http://www.w3.org/2000/svg">
<linearGradient id="chev31" x1="0" y1="0" x2="0" y2="1">
  <stop offset="0%" stop-color="#FBFDFF" />
  <stop offset="42%" stop-color="#E5EFFB" />
  <stop offset="100%" stop-color="#BED3ED" />
</linearGradient>
<linearGradient id="chev31_hl" x1="0" y1="0" x2="0" y2="1">
  <stop offset="0%" stop-color="#FFFFFF" stop-opacity="0.70" />
  <stop offset="100%" stop-color="#FFFFFF" stop-opacity="0.00" />
</linearGradient>
</defs>

  <rect width="1280" height="720" fill="#FFFFFF"/>
  <rect x="96" y="106" width="1088" height="488" rx="28" fill="#F8FAFC" stroke="#D9E5F5" stroke-width="2"/>
  <g id="pptpack6_milestone_chevron_timeline_32" transform="translate(150.000 212.188) scale(1.531250)">
    <desc xmlns="http://www.w3.org/2000/svg">milestone chevron timeline</desc>

    <path xmlns="http://www.w3.org/2000/svg" d="M 34.0 66.0 L 100.5 66.0 L 122.7 95.0 L 100.5 124.0 L 34.0 124.0 Z" fill="#60758A" stroke="none" stroke-width="0" opacity="0.055" stroke-linejoin="round" />
    <path xmlns="http://www.w3.org/2000/svg" d="M 34.0 62.0 L 100.5 62.0 L 122.7 91.0 L 100.5 120.0 L 34.0 120.0 Z" fill="url(#chev31)" stroke="#88A8CC" stroke-width="1.5" opacity="1" stroke-linejoin="round" />
    <circle xmlns="http://www.w3.org/2000/svg" cx="78.3" cy="91.0" r="6" fill="#FFFFFF" opacity="0.65" stroke="#88A8CC" stroke-width="1" />
    <path xmlns="http://www.w3.org/2000/svg" d="M 130.7 66.0 L 197.2 66.0 L 219.3 95.0 L 197.2 124.0 L 130.7 124.0 L 152.8 95.0 Z" fill="#60758A" stroke="none" stroke-width="0" opacity="0.055" stroke-linejoin="round" />
    <path xmlns="http://www.w3.org/2000/svg" d="M 130.7 62.0 L 197.2 62.0 L 219.3 91.0 L 197.2 120.0 L 130.7 120.0 L 152.8 91.0 Z" fill="url(#chev31)" stroke="#88A8CC" stroke-width="1.5" opacity="1" stroke-linejoin="round" />
    <circle xmlns="http://www.w3.org/2000/svg" cx="175.0" cy="91.0" r="6" fill="#FFFFFF" opacity="0.65" stroke="#88A8CC" stroke-width="1" />
    <path xmlns="http://www.w3.org/2000/svg" d="M 227.3 66.0 L 293.8 66.0 L 316.0 95.0 L 293.8 124.0 L 227.3 124.0 L 249.5 95.0 Z" fill="#60758A" stroke="none" stroke-width="0" opacity="0.055" stroke-linejoin="round" />
    <path xmlns="http://www.w3.org/2000/svg" d="M 227.3 62.0 L 293.8 62.0 L 316.0 91.0 L 293.8 120.0 L 227.3 120.0 L 249.5 91.0 Z" fill="url(#chev31)" stroke="#88A8CC" stroke-width="1.5" opacity="1" stroke-linejoin="round" />
    <circle xmlns="http://www.w3.org/2000/svg" cx="271.7" cy="91.0" r="6" fill="#FFFFFF" opacity="0.65" stroke="#88A8CC" stroke-width="1" />
    <path xmlns="http://www.w3.org/2000/svg" d="M 324.0 66.0 L 390.5 66.0 L 412.7 95.0 L 390.5 124.0 L 324.0 124.0 L 346.2 95.0 Z" fill="#60758A" stroke="none" stroke-width="0" opacity="0.055" stroke-linejoin="round" />
    <path xmlns="http://www.w3.org/2000/svg" d="M 324.0 62.0 L 390.5 62.0 L 412.7 91.0 L 390.5 120.0 L 324.0 120.0 L 346.2 91.0 Z" fill="url(#chev31)" stroke="#88A8CC" stroke-width="1.5" opacity="1" stroke-linejoin="round" />
    <circle xmlns="http://www.w3.org/2000/svg" cx="368.3" cy="91.0" r="6" fill="#FFFFFF" opacity="0.65" stroke="#88A8CC" stroke-width="1" />
    <path xmlns="http://www.w3.org/2000/svg" d="M 420.7 66.0 L 487.2 66.0 L 509.3 95.0 L 487.2 124.0 L 420.7 124.0 L 442.8 95.0 Z" fill="#60758A" stroke="none" stroke-width="0" opacity="0.055" stroke-linejoin="round" />
    <path xmlns="http://www.w3.org/2000/svg" d="M 420.7 62.0 L 487.2 62.0 L 509.3 91.0 L 487.2 120.0 L 420.7 120.0 L 442.8 91.0 Z" fill="url(#chev31)" stroke="#88A8CC" stroke-width="1.5" opacity="1" stroke-linejoin="round" />
    <circle xmlns="http://www.w3.org/2000/svg" cx="465.0" cy="91.0" r="6" fill="#FFFFFF" opacity="0.65" stroke="#88A8CC" stroke-width="1" />
    <path xmlns="http://www.w3.org/2000/svg" d="M 517.3 66.0 L 583.8 66.0 L 606.0 95.0 L 583.8 124.0 L 517.3 124.0 L 539.5 95.0 Z" fill="#60758A" stroke="none" stroke-width="0" opacity="0.055" stroke-linejoin="round" />
    <path xmlns="http://www.w3.org/2000/svg" d="M 517.3 62.0 L 583.8 62.0 L 606.0 91.0 L 583.8 120.0 L 517.3 120.0 L 539.5 91.0 Z" fill="url(#chev31)" stroke="#88A8CC" stroke-width="1.5" opacity="1" stroke-linejoin="round" />
    <circle xmlns="http://www.w3.org/2000/svg" cx="561.7" cy="91.0" r="6" fill="#FFFFFF" opacity="0.65" stroke="#88A8CC" stroke-width="1" />

  </g>
  <text x="640" y="650" text-anchor="middle" font-family="Microsoft YaHei, Arial, sans-serif" font-size="17" font-weight="700" fill="#123A73">pptpack6_milestone_chevron_timeline_32</text>
</svg>
