<svg xmlns="http://www.w3.org/2000/svg" viewBox="0 0 1280 720" width="1280" height="720">
  <!--
  PPT Arrow Pack Template
  Source: assets/ppt_arrow_pack6_sources/02_Multi_Lane_Data_Flow_Gradient/multi_lane_data_flow_31.svg
  License: custom pack permission; see assets/ppt_arrow_pack6_sources/README.md
  Regenerate with: python3 skills/ppt-master/scripts/import_ppt_arrow_pack_assets.py
  -->
  <defs xmlns="http://www.w3.org/2000/svg">
<linearGradient id="flow30" x1="0" y1="0" x2="0" y2="1">
  <stop offset="0%" stop-color="#F7FBFF" />
  <stop offset="42%" stop-color="#E2ECF8" />
  <stop offset="100%" stop-color="#C8D8ED" />
</linearGradient>
<linearGradient id="flow30_hl" x1="0" y1="0" x2="0" y2="1">
  <stop offset="0%" stop-color="#FFFFFF" stop-opacity="0.70" />
  <stop offset="100%" stop-color="#FFFFFF" stop-opacity="0.00" />
</linearGradient>
</defs>

  <rect width="1280" height="720" fill="#FFFFFF"/>
  <rect x="96" y="106" width="1088" height="488" rx="28" fill="#F8FAFC" stroke="#D9E5F5" stroke-width="2"/>
  <g id="pptpack6_multi_lane_data_flow_31" transform="translate(150.000 212.188) scale(1.531250)">
    <desc xmlns="http://www.w3.org/2000/svg">2-lane data flow arrow</desc>

    <path xmlns="http://www.w3.org/2000/svg" d="M 48.0 55.0 L 512.0 55.0 L 512.0 47.0 L 592.0 70.0 L 512.0 93.0 L 512.0 85.0 L 48.0 85.0 Z" fill="#60758A" stroke="none" stroke-width="0" opacity="0.06" stroke-linejoin="round" />
    <path xmlns="http://www.w3.org/2000/svg" d="M 48.0 51.0 L 512.0 51.0 L 512.0 43.0 L 592.0 66.0 L 512.0 89.0 L 512.0 81.0 L 48.0 81.0 Z" fill="url(#flow30)" stroke="#91A9C7" stroke-width="1.7" opacity="1" stroke-linejoin="round" />
    <path xmlns="http://www.w3.org/2000/svg" d="M 48.0 93.0 L 512.0 93.0 L 512.0 85.0 L 592.0 108.0 L 512.0 131.0 L 512.0 123.0 L 48.0 123.0 Z" fill="#60758A" stroke="none" stroke-width="0" opacity="0.06" stroke-linejoin="round" />
    <path xmlns="http://www.w3.org/2000/svg" d="M 48.0 89.0 L 512.0 89.0 L 512.0 81.0 L 592.0 104.0 L 512.0 127.0 L 512.0 119.0 L 48.0 119.0 Z" fill="url(#flow30)" stroke="#91A9C7" stroke-width="1.7" opacity="1" stroke-linejoin="round" />

  </g>
  <text x="640" y="650" text-anchor="middle" font-family="Microsoft YaHei, Arial, sans-serif" font-size="17" font-weight="700" fill="#123A73">pptpack6_multi_lane_data_flow_31</text>
</svg>
