<svg xmlns="http://www.w3.org/2000/svg" viewBox="0 0 1280 720" width="1280" height="720">
  <!--
  PPT Arrow Pack Template
  Source: assets/ppt_arrow_pack6_sources/03_Milestone_Chevron_Timelines/milestone_chevron_timeline_22.svg
  License: custom pack permission; see assets/ppt_arrow_pack6_sources/README.md
  Regenerate with: python3 skills/ppt-master/scripts/import_ppt_arrow_pack_assets.py
  -->
  <defs xmlns="http://www.w3.org/2000/svg">
<linearGradient id="chev21" x1="0" y1="0" x2="0" y2="1">
  <stop offset="0%" stop-color="#FAFCFF" />
  <stop offset="42%" stop-color="#E1EAF6" />
  <stop offset="100%" stop-color="#C4D5EB" />
</linearGradient>
<linearGradient id="chev21_hl" x1="0" y1="0" x2="0" y2="1">
  <stop offset="0%" stop-color="#FFFFFF" stop-opacity="0.70" />
  <stop offset="100%" stop-color="#FFFFFF" stop-opacity="0.00" />
</linearGradient>
</defs>

  <rect width="1280" height="720" fill="#FFFFFF"/>
  <rect x="96" y="106" width="1088" height="488" rx="28" fill="#F8FAFC" stroke="#D9E5F5" stroke-width="2"/>
  <g id="pptpack6_milestone_chevron_timeline_22" transform="translate(150.000 212.188) scale(1.531250)">
    <desc xmlns="http://www.w3.org/2000/svg">single arrow with milestone nodes</desc>

    <path xmlns="http://www.w3.org/2000/svg" d="M 34.0 85.0 L 560.0 85.0 L 560.0 67.0 L 612.0 98.0 L 560.0 129.0 L 560.0 111.0 L 34.0 111.0 Z" fill="#60758A" stroke="none" stroke-width="0" opacity="0.07" stroke-linejoin="round" />
    <path xmlns="http://www.w3.org/2000/svg" d="M 34.0 80.0 L 560.0 80.0 L 560.0 62.0 L 612.0 93.0 L 560.0 124.0 L 560.0 106.0 L 34.0 106.0 Z" fill="url(#chev21)" stroke="#92AAC8" stroke-width="1.7" opacity="1" stroke-linejoin="round" />
    <circle xmlns="http://www.w3.org/2000/svg" cx="99.0" cy="93.0" r="9" fill="#FFFFFF" opacity="0.8" stroke="#92AAC8" stroke-width="1.4" />
    <circle xmlns="http://www.w3.org/2000/svg" cx="256.3" cy="93.0" r="9" fill="#FFFFFF" opacity="0.8" stroke="#92AAC8" stroke-width="1.4" />
    <circle xmlns="http://www.w3.org/2000/svg" cx="413.7" cy="93.0" r="9" fill="#FFFFFF" opacity="0.8" stroke="#92AAC8" stroke-width="1.4" />
    <circle xmlns="http://www.w3.org/2000/svg" cx="571.0" cy="93.0" r="9" fill="#FFFFFF" opacity="0.8" stroke="#92AAC8" stroke-width="1.4" />

  </g>
  <text x="640" y="650" text-anchor="middle" font-family="Microsoft YaHei, Arial, sans-serif" font-size="17" font-weight="700" fill="#123A73">pptpack6_milestone_chevron_timeline_22</text>
</svg>
