<svg xmlns="http://www.w3.org/2000/svg" viewBox="0 0 1280 720" width="1280" height="720">
  <!--
  PPT Arrow Pack Template
  Source: assets/ppt_arrow_pack2_sources/01_MainChain_Gradient_SVG/15_overlap_chain_4.svg
  License: custom pack permission; see assets/ppt_arrow_pack2_sources/LICENSE_CUSTOM_ASSET_USAGE.txt
  Regenerate with: python3 skills/ppt-master/scripts/import_ppt_arrow_pack_assets.py
  -->
  <defs xmlns="http://www.w3.org/2000/svg">
  <linearGradient id="g" x1="0" y1="0" x2="0" y2="1">
    <stop offset="0%" stop-color="#AFC5E8" />
    <stop offset="38%" stop-color="#DCE7F7" />
    <stop offset="100%" stop-color="#FFFFFF" />
  </linearGradient>
  <linearGradient id="gSide" x1="0" y1="0" x2="1" y2="0">
    <stop offset="0%" stop-color="#EAF1FB" stop-opacity="0.85" />
    <stop offset="100%" stop-color="#9FB9DF" stop-opacity="0.9" />
  </linearGradient>
</defs>

  <rect width="1280" height="720" fill="#FFFFFF"/>
  <rect x="96" y="106" width="1088" height="488" rx="28" fill="#F8FAFC" stroke="#D9E5F5" stroke-width="2"/>
  <g id="pptpack2_gradient_overlap_chain_4" transform="translate(150.000 227.500) scale(0.816667)">
    <polygon xmlns="http://www.w3.org/2000/svg" points="40,90 290,90 370,158 290,226 40,226 110,158" fill="#506B8B" opacity="0.1" />

    <polygon xmlns="http://www.w3.org/2000/svg" points="305,90 555,90 635,158 555,226 305,226 375,158" fill="#506B8B" opacity="0.1" />

    <polygon xmlns="http://www.w3.org/2000/svg" points="570,90 820,90 900,158 820,226 570,226 640,158" fill="#506B8B" opacity="0.1" />

    <polygon xmlns="http://www.w3.org/2000/svg" points="835,90 1085,90 1165,158 1085,226 835,226 905,158" fill="#506B8B" opacity="0.1" />

    <polygon xmlns="http://www.w3.org/2000/svg" points="40,82 290,82 370,150 290,218 40,218 110,150" fill="url(#g)" stroke="#8FAAD2" stroke-width="2.5" stroke-linejoin="round" opacity="1" />

    <polygon xmlns="http://www.w3.org/2000/svg" points="305,82 555,82 635,150 555,218 305,218 375,150" fill="url(#g)" stroke="#8FAAD2" stroke-width="2.5" stroke-linejoin="round" opacity="1" />

    <polygon xmlns="http://www.w3.org/2000/svg" points="570,82 820,82 900,150 820,218 570,218 640,150" fill="url(#g)" stroke="#8FAAD2" stroke-width="2.5" stroke-linejoin="round" opacity="1" />

    <polygon xmlns="http://www.w3.org/2000/svg" points="835,82 1085,82 1165,150 1085,218 835,218 905,150" fill="url(#g)" stroke="#8FAAD2" stroke-width="2.5" stroke-linejoin="round" opacity="1" />

    <path xmlns="http://www.w3.org/2000/svg" d="M 50 84 L 285 84" fill="none" stroke="#FFFFFF" stroke-width="3" stroke-linecap="round" opacity="0.55" />

    <path xmlns="http://www.w3.org/2000/svg" d="M 315 84 L 550 84" fill="none" stroke="#FFFFFF" stroke-width="3" stroke-linecap="round" opacity="0.55" />

    <path xmlns="http://www.w3.org/2000/svg" d="M 580 84 L 815 84" fill="none" stroke="#FFFFFF" stroke-width="3" stroke-linecap="round" opacity="0.55" />

    <path xmlns="http://www.w3.org/2000/svg" d="M 845 84 L 1080 84" fill="none" stroke="#FFFFFF" stroke-width="3" stroke-linecap="round" opacity="0.55" />

  </g>
  <text x="640" y="650" text-anchor="middle" font-family="Microsoft YaHei, Arial, sans-serif" font-size="17" font-weight="700" fill="#123A73">pptpack2_gradient_overlap_chain_4</text>
</svg>
