<svg xmlns="http://www.w3.org/2000/svg" width="640" height="180" viewBox="0 0 640 180" role="img" aria-label="Multi Lane Data Flow 28">
<title>Multi Lane Data Flow 28</title>
<desc>multi-lane convergence arrow</desc>
<defs>
<linearGradient id="flow27" x1="0" y1="0" x2="0" y2="1">
  <stop offset="0%" stop-color="#F7FBFF"/>
  <stop offset="42%" stop-color="#D9E8F5"/>
  <stop offset="100%" stop-color="#C6D8EC"/>
</linearGradient>
<linearGradient id="flow27_hl" x1="0" y1="0" x2="0" y2="1">
  <stop offset="0%" stop-color="#FFFFFF" stop-opacity="0.70"/>
  <stop offset="100%" stop-color="#FFFFFF" stop-opacity="0.00"/>
</linearGradient>
</defs>
<path d="M 43.0 54.0 L 350.0 54.0 L 456.0 90.0 L 350.0 76.0 L 43.0 76.0 Z" fill="#60758A" stroke="none" stroke-width="0" opacity="0.06" stroke-linejoin="round" /><path d="M 43.0 50.0 L 350.0 50.0 L 456.0 86.0 L 350.0 72.0 L 43.0 72.0 Z" fill="url(#flow27)" stroke="#8FAACA" stroke-width="1.7" opacity="1" stroke-linejoin="round" /><path d="M 43.0 90.0 L 360.0 90.0 L 456.0 90.0 L 360.0 58.0 L 43.0 58.0 Z" fill="#60758A" stroke="none" stroke-width="0" opacity="0.06" stroke-linejoin="round" /><path d="M 43.0 86.0 L 360.0 86.0 L 456.0 86.0 L 360.0 54.0 L 43.0 54.0 Z" fill="url(#flow27)" stroke="#8FAACA" stroke-width="1.7" opacity="1" stroke-linejoin="round" /><path d="M 43.0 126.0 L 350.0 126.0 L 456.0 90.0 L 350.0 148.0 L 43.0 148.0 Z" fill="#60758A" stroke="none" stroke-width="0" opacity="0.06" stroke-linejoin="round" /><path d="M 43.0 122.0 L 350.0 122.0 L 456.0 86.0 L 350.0 144.0 L 43.0 144.0 Z" fill="url(#flow27)" stroke="#8FAACA" stroke-width="1.7" opacity="1" stroke-linejoin="round" /><path d="M 456.0 58.0 L 597.0 94.0 L 456.0 130.0 Z" fill="#60758A" stroke="none" stroke-width="0" opacity="0.06" stroke-linejoin="round" /><path d="M 456.0 54.0 L 597.0 90.0 L 456.0 126.0 Z" fill="url(#flow27)" stroke="#8FAACA" stroke-width="1.7" opacity="1" stroke-linejoin="round" />
</svg>
