<svg xmlns="http://www.w3.org/2000/svg" width="640" height="180" viewBox="0 0 640 180" role="img" aria-label="Multi Lane Data Flow 21">
<title>Multi Lane Data Flow 21</title>
<desc>4-lane data flow arrow</desc>
<defs>
<linearGradient id="flow20" x1="0" y1="0" x2="0" y2="1">
  <stop offset="0%" stop-color="#FBFDFF"/>
  <stop offset="42%" stop-color="#E5EFFB"/>
  <stop offset="100%" stop-color="#BED3ED"/>
</linearGradient>
<linearGradient id="flow20_hl" x1="0" y1="0" x2="0" y2="1">
  <stop offset="0%" stop-color="#FFFFFF" stop-opacity="0.70"/>
  <stop offset="100%" stop-color="#FFFFFF" stop-opacity="0.00"/>
</linearGradient>
</defs>
<path d="M 38.0 55.0 L 506.0 55.0 L 506.0 47.0 L 602.0 68.0 L 506.0 89.0 L 506.0 81.0 L 38.0 81.0 Z" fill="#60758A" stroke="none" stroke-width="0" opacity="0.06" stroke-linejoin="round" /><path d="M 38.0 51.0 L 506.0 51.0 L 506.0 43.0 L 602.0 64.0 L 506.0 85.0 L 506.0 77.0 L 38.0 77.0 Z" fill="url(#flow20)" stroke="#88A8CC" stroke-width="1.7" opacity="1" stroke-linejoin="round" /><path d="M 38.0 89.0 L 506.0 89.0 L 506.0 81.0 L 602.0 102.0 L 506.0 123.0 L 506.0 115.0 L 38.0 115.0 Z" fill="#60758A" stroke="none" stroke-width="0" opacity="0.06" stroke-linejoin="round" /><path d="M 38.0 85.0 L 506.0 85.0 L 506.0 77.0 L 602.0 98.0 L 506.0 119.0 L 506.0 111.0 L 38.0 111.0 Z" fill="url(#flow20)" stroke="#88A8CC" stroke-width="1.7" opacity="1" stroke-linejoin="round" /><path d="M 38.0 123.0 L 506.0 123.0 L 506.0 115.0 L 602.0 136.0 L 506.0 157.0 L 506.0 149.0 L 38.0 149.0 Z" fill="#60758A" stroke="none" stroke-width="0" opacity="0.06" stroke-linejoin="round" /><path d="M 38.0 119.0 L 506.0 119.0 L 506.0 111.0 L 602.0 132.0 L 506.0 153.0 L 506.0 145.0 L 38.0 145.0 Z" fill="url(#flow20)" stroke="#88A8CC" stroke-width="1.7" opacity="1" stroke-linejoin="round" /><path d="M 38.0 157.0 L 506.0 157.0 L 506.0 149.0 L 602.0 170.0 L 506.0 191.0 L 506.0 183.0 L 38.0 183.0 Z" fill="#60758A" stroke="none" stroke-width="0" opacity="0.06" stroke-linejoin="round" /><path d="M 38.0 153.0 L 506.0 153.0 L 506.0 145.0 L 602.0 166.0 L 506.0 187.0 L 506.0 179.0 L 38.0 179.0 Z" fill="url(#flow20)" stroke="#88A8CC" stroke-width="1.7" opacity="1" stroke-linejoin="round" />
</svg>
