<svg xmlns="http://www.w3.org/2000/svg" width="800" height="220" viewBox="0 0 800 220" role="img">
  <title>process_chevron_04</title>
  <rect width="100%" height="100%" fill="none"/>
  <defs>
    <linearGradient id="g" x1="0" y1="0" x2="0" y2="1">
      <stop offset="0%" stop-color="#C9D9F4"/>
      <stop offset="58%" stop-color="#EEF5FF"/>
      <stop offset="100%" stop-color="#FFFFFF"/>
    </linearGradient>
    <linearGradient id="gSide" x1="0" y1="0" x2="1" y2="0">
      <stop offset="0%" stop-color="#E8F1FF"/>
      <stop offset="100%" stop-color="#B8CCE9"/>
    </linearGradient>
  </defs>
  <polygon points="48.0,89.0 124.0,89.0 166.0,116.0 124.0,143.0 48.0,143.0" fill="#496A9E" opacity="0.1"/>
  <polygon points="184.9,89.0 242.0,89.0 284.0,116.0 242.0,143.0 184.9,143.0 208.0,116.0" fill="#496A9E" opacity="0.1"/>
  <polygon points="302.9,89.0 360.0,89.0 402.0,116.0 360.0,143.0 302.9,143.0 326.0,116.0" fill="#496A9E" opacity="0.1"/>
  <polygon points="420.9,89.0 478.0,89.0 520.0,116.0 478.0,143.0 420.9,143.0 444.0,116.0" fill="#496A9E" opacity="0.1"/>
  <polygon points="538.9,89.0 596.0,89.0 638.0,116.0 596.0,143.0 538.9,143.0 562.0,116.0" fill="#496A9E" opacity="0.1"/>
  <polygon points="45.0,82.0 121.0,82.0 163.0,109.0 121.0,136.0 45.0,136.0" fill="url(#g)" opacity="1" stroke="#9BB4D9" stroke-width="2" stroke-linejoin="round"/>
  <polygon points="181.9,82.0 239.0,82.0 281.0,109.0 239.0,136.0 181.9,136.0 205.0,109.0" fill="url(#g)" opacity="1" stroke="#9BB4D9" stroke-width="2" stroke-linejoin="round"/>
  <polygon points="299.9,82.0 357.0,82.0 399.0,109.0 357.0,136.0 299.9,136.0 323.0,109.0" fill="url(#g)" opacity="1" stroke="#9BB4D9" stroke-width="2" stroke-linejoin="round"/>
  <polygon points="417.9,82.0 475.0,82.0 517.0,109.0 475.0,136.0 417.9,136.0 441.0,109.0" fill="url(#g)" opacity="1" stroke="#9BB4D9" stroke-width="2" stroke-linejoin="round"/>
  <polygon points="535.9,82.0 593.0,82.0 635.0,109.0 593.0,136.0 535.9,136.0 559.0,109.0" fill="url(#g)" opacity="1" stroke="#9BB4D9" stroke-width="2" stroke-linejoin="round"/>
</svg>