<svg xmlns="http://www.w3.org/2000/svg" width="640" height="180" viewBox="0 0 640 180" role="img" aria-label="Milestone Chevron Timeline 30">
<title>Milestone Chevron Timeline 30</title>
<desc>staggered chevron process</desc>
<defs>
<linearGradient id="chev29" x1="0" y1="0" x2="0" y2="1">
  <stop offset="0%" stop-color="#F7FBFF"/>
  <stop offset="42%" stop-color="#E2ECF8"/>
  <stop offset="100%" stop-color="#C8D8ED"/>
</linearGradient>
<linearGradient id="chev29_hl" x1="0" y1="0" x2="0" y2="1">
  <stop offset="0%" stop-color="#FFFFFF" stop-opacity="0.70"/>
  <stop offset="100%" stop-color="#FFFFFF" stop-opacity="0.00"/>
</linearGradient>
</defs>
<path d="M 34.0 62.0 L 150.5 62.0 L 172.5 92.0 L 150.5 122.0 L 34.0 122.0 L 56.0 92.0 Z" fill="#60758A" stroke="none" stroke-width="0" opacity="0.05" stroke-linejoin="round" /><path d="M 34.0 58.0 L 150.5 58.0 L 172.5 88.0 L 150.5 118.0 L 34.0 118.0 L 56.0 88.0 Z" fill="url(#chev29)" stroke="#91A9C7" stroke-width="1.3" opacity="1" stroke-linejoin="round" /><path d="M 178.5 78.0 L 295.0 78.0 L 317.0 108.0 L 295.0 138.0 L 178.5 138.0 L 200.5 108.0 Z" fill="#60758A" stroke="none" stroke-width="0" opacity="0.05" stroke-linejoin="round" /><path d="M 178.5 74.0 L 295.0 74.0 L 317.0 104.0 L 295.0 134.0 L 178.5 134.0 L 200.5 104.0 Z" fill="url(#chev29)" stroke="#91A9C7" stroke-width="1.3" opacity="1" stroke-linejoin="round" /><path d="M 323.0 62.0 L 439.5 62.0 L 461.5 92.0 L 439.5 122.0 L 323.0 122.0 L 345.0 92.0 Z" fill="#60758A" stroke="none" stroke-width="0" opacity="0.05" stroke-linejoin="round" /><path d="M 323.0 58.0 L 439.5 58.0 L 461.5 88.0 L 439.5 118.0 L 323.0 118.0 L 345.0 88.0 Z" fill="url(#chev29)" stroke="#91A9C7" stroke-width="1.3" opacity="1" stroke-linejoin="round" /><path d="M 467.5 78.0 L 584.0 78.0 L 606.0 108.0 L 584.0 138.0 L 467.5 138.0 L 489.5 108.0 Z" fill="#60758A" stroke="none" stroke-width="0" opacity="0.05" stroke-linejoin="round" /><path d="M 467.5 74.0 L 584.0 74.0 L 606.0 104.0 L 584.0 134.0 L 467.5 134.0 L 489.5 104.0 Z" fill="url(#chev29)" stroke="#91A9C7" stroke-width="1.3" opacity="1" stroke-linejoin="round" />
</svg>
