<svg xmlns="http://www.w3.org/2000/svg" width="640" height="180" viewBox="0 0 640 180" role="img" aria-label="Milestone Chevron Timeline 42">
<title>Milestone Chevron Timeline 42</title>
<desc>staggered chevron process</desc>
<defs>
<linearGradient id="chev41" x1="0" y1="0" x2="0" y2="1">
  <stop offset="0%" stop-color="#F7FBFF"/>
  <stop offset="42%" stop-color="#E2ECF8"/>
  <stop offset="100%" stop-color="#C8D8ED"/>
</linearGradient>
<linearGradient id="chev41_hl" x1="0" y1="0" x2="0" y2="1">
  <stop offset="0%" stop-color="#FFFFFF" stop-opacity="0.70"/>
  <stop offset="100%" stop-color="#FFFFFF" stop-opacity="0.00"/>
</linearGradient>
</defs>
<path d="M 34.0 62.0 L 150.5 62.0 L 172.5 93.0 L 150.5 124.0 L 34.0 124.0 L 56.0 93.0 Z" fill="#60758A" stroke="none" stroke-width="0" opacity="0.05" stroke-linejoin="round" /><path d="M 34.0 58.0 L 150.5 58.0 L 172.5 89.0 L 150.5 120.0 L 34.0 120.0 L 56.0 89.0 Z" fill="url(#chev41)" stroke="#91A9C7" stroke-width="1.3" opacity="1" stroke-linejoin="round" /><path d="M 178.5 78.0 L 295.0 78.0 L 317.0 109.0 L 295.0 140.0 L 178.5 140.0 L 200.5 109.0 Z" fill="#60758A" stroke="none" stroke-width="0" opacity="0.05" stroke-linejoin="round" /><path d="M 178.5 74.0 L 295.0 74.0 L 317.0 105.0 L 295.0 136.0 L 178.5 136.0 L 200.5 105.0 Z" fill="url(#chev41)" stroke="#91A9C7" stroke-width="1.3" opacity="1" stroke-linejoin="round" /><path d="M 323.0 62.0 L 439.5 62.0 L 461.5 93.0 L 439.5 124.0 L 323.0 124.0 L 345.0 93.0 Z" fill="#60758A" stroke="none" stroke-width="0" opacity="0.05" stroke-linejoin="round" /><path d="M 323.0 58.0 L 439.5 58.0 L 461.5 89.0 L 439.5 120.0 L 323.0 120.0 L 345.0 89.0 Z" fill="url(#chev41)" stroke="#91A9C7" stroke-width="1.3" opacity="1" stroke-linejoin="round" /><path d="M 467.5 78.0 L 584.0 78.0 L 606.0 109.0 L 584.0 140.0 L 467.5 140.0 L 489.5 109.0 Z" fill="#60758A" stroke="none" stroke-width="0" opacity="0.05" stroke-linejoin="round" /><path d="M 467.5 74.0 L 584.0 74.0 L 606.0 105.0 L 584.0 136.0 L 467.5 136.0 L 489.5 105.0 Z" fill="url(#chev41)" stroke="#91A9C7" stroke-width="1.3" opacity="1" stroke-linejoin="round" />
</svg>
